<?xml version="1.0" standalone="no"?><!DOCTYPE svg PUBLIC "-//W3C//DTD SVG 1.1//EN" "http://www.w3.org/Graphics/SVG/1.1/DTD/svg11.dtd"><svg t="1713343525890" class="icon" viewBox="0 0 1046 1024" version="1.1" xmlns="http://www.w3.org/2000/svg" p-id="1854" xmlns:xlink="http://www.w3.org/1999/xlink" width="204.296875" height="200"><path d="M543.397647 922.88c-7.529412 0-14.155294-3.84-30.117647-13.402353-15.058824-8.884706-35.915294-21.082353-51.651765-24.169412C316.235294 856.32 271.058824 635.331765 248.470588 446.042353a15.164235 15.164235 0 1 1 30.117647-3.614118c41.261176 344.997647 127.472941 401.167059 188.687059 413.364706 20.705882 4.065882 43.971765 17.769412 60.988235 27.708235 5.044706 2.936471 10.992941 6.475294 14.682353 8.282353 1.957647-1.28 4.442353-3.237647 6.625883-4.894117a170.842353 170.842353 0 0 1 57.298823-30.795294c141.025882-41.712941 182.512941-256 201.487059-413.665883a15.164235 15.164235 0 1 1 30.117647 3.614118c-21.609412 180.103529-66.56 392.734118-222.795294 438.964706A140.197647 140.197647 0 0 0 567.717647 911.058824c-9.110588 6.776471-15.736471 11.821176-24.32 11.821176z m-2.785882-29.665882z" fill="#1B130C" p-id="1855"></path><path d="M805.647059 459.294118H271.058824a90.352941 90.352941 0 0 1-76.348236-138.390589c65.204706-103.378824 180.705882-155.783529 343.567059-155.783529s278.588235 52.705882 343.642353 155.783529A90.352941 90.352941 0 0 1 805.647059 459.294118zM538.277647 195.237647c-151.717647 0-258.710588 47.661176-318.117647 141.778824A60.235294 60.235294 0 0 0 271.058824 429.176471h534.588235a60.235294 60.235294 0 0 0 50.898823-92.385883c-59.557647-93.891765-166.625882-141.552941-318.268235-141.552941z" fill="#1B130C" p-id="1856"></path><path d="M655.36 759.190588m-15.058824 0a15.058824 15.058824 0 1 0 30.117648 0 15.058824 15.058824 0 1 0-30.117648 0Z" fill="#1B130C" p-id="1857"></path><path d="M673.807059 730.352941a15.058824 15.058824 0 0 1-13.176471-22.588235c21.007059-38.324706 37.647059-92.235294 49.317647-160.301177a15.088941 15.088941 0 0 1 29.741177 5.12c-12.348235 71.303529-30.117647 128.451765-52.705883 169.637647A15.058824 15.058824 0 0 1 673.807059 730.352941zM548.216471 179.802353a15.058824 15.058824 0 0 1-15.058824-15.058824c0-28.310588-13.251765-49.468235-40.508235-64.602353a15.058824 15.058824 0 0 1 14.607059-26.352941c37.195294 20.630588 56.018824 51.275294 56.018823 90.955294a15.058824 15.058824 0 0 1-15.058823 15.058824zM203.821176 407.190588a7.529412 7.529412 0 0 1-4.894117-13.251764l249.675294-214.061177a7.529412 7.529412 0 1 1 9.863529 11.369412L208.790588 405.383529a7.529412 7.529412 0 0 1-4.969412 1.807059zM268.423529 450.710588a7.529412 7.529412 0 0 1-4.894117-13.327059l310.061176-257.581176a7.529412 7.529412 0 1 1 9.637647 11.52L273.242353 448.978824a7.529412 7.529412 0 0 1-4.818824 1.731764zM410.955294 450.710588a7.529412 7.529412 0 0 1-5.647059-2.56 7.529412 7.529412 0 0 1 0.677647-10.61647l267.218824-236.950589a7.529412 7.529412 0 1 1 10.014118 11.218824l-267.294118 237.025882a7.529412 7.529412 0 0 1-4.969412 1.882353zM551.228235 450.710588a7.529412 7.529412 0 0 1-5.647059-2.484706 7.529412 7.529412 0 0 1 0.602353-10.61647l217.148236-196.141177a7.544471 7.544471 0 1 1 10.089411 11.218824l-217.148235 195.764706a7.529412 7.529412 0 0 1-5.044706 2.258823zM686.004706 450.710588a7.529412 7.529412 0 0 1-5.12-13.025882l148.028235-137.487059a7.567059 7.567059 0 0 1 10.315294 11.068235L691.124706 448.677647a7.529412 7.529412 0 0 1-5.12 2.032941z" fill="#1B130C" p-id="1858"></path><path d="M986.352941 30.117647V15.058824a15.058824 15.058824 0 0 1 30.117647 0v15.058823h15.058824a15.058824 15.058824 0 0 1 0 30.117647h-15.058824v15.058824a15.058824 15.058824 0 0 1-30.117647 0V60.235294h-15.058823a15.058824 15.058824 0 0 1 0-30.117647z" fill="#1B130C" p-id="1859"></path><path d="M45.176471 1024a45.176471 45.176471 0 1 1 45.17647-45.176471 45.176471 45.176471 0 0 1-45.17647 45.176471z m0-60.235294a15.058824 15.058824 0 1 0 15.058823 15.058823 15.058824 15.058824 0 0 0-15.058823-15.058823z" fill="#1B130C" p-id="1860"></path></svg>